<svg version="1.1" xmlns="http://www.w3.org/2000/svg" viewBox="0 0 909.3499755859375 505" width="909.3499755859375" height="505"><!-- svg-source:excalidraw --><metadata><!-- payload-type:application/vnd.excalidraw+json --><!-- payload-version:2 --><!-- payload-start -->eyJ2ZXJzaW9uIjoiMSIsImVuY29kaW5nIjoiYnN0cmluZyIsImNvbXByZXNzZWQiOnRydWUsImVuY29kZWQiOiJ4nO2cbVPaTFx1MDAxN8ff91M43m9Lus9cdTAwMGZ9h6DF+lBcdTAwMDWsXHUwMDBm11xc41x1MDAwNFx1MDAxMiE1JFx1MDAxOIKK1/S737ugJIRcdTAwMDCJXHUwMDAyZabQaacuyWaze37/PWd3j/992tnZXHJcdTAwMDdde/frzq793DRdx1xuzKfdz7r80Vx1MDAwZXqO76mv0PDnnt9cdTAwMGaawyvbYdjtff3yxex2jZZcdTAwMTM2fP/eaPqd0W22a3dsL+ypXHUwMDBi/1E/7+z8N/xXfeNY+ubqXHUwMDBieO7fyHa9XCKr5C64LD0412x46/Cit9ZcdTAwMDR2MzS9lmtHXz2rclx1MDAwNrghOFx1MDAwNVx1MDAwMFx1MDAwYkiY5Hj87UB9K8Y/PTlW2NZNJ9IgnEhOqaBcdTAwMTJzOr6ibTutdqguwVx1MDAxNIxcdTAwMGJHT/y6XHUwMDEzlfTCwL+3S77rXHUwMDA3uln/g7b+XHUwMDEzNaphNu9bgd/3rPE1YWB6va5cdTAwMTmoXoiuu3NcXLdcdTAwMTZcdTAwMGWGtauuVFx1MDAxZL2beMblW5NcdTAwMTPls+5SXHUwMDBmbbU9u6d7XHUwMDFhjkv9rtl0Qt1cdTAwMTlcdTAwMTBEb6Fb2D20okFcdTAwMTnV32+0XHUwMDAys9u+XHUwMDFkfn1be3JarcGXYsd8UcP+etm/0Vx1MDAxYlx1MDAwNGbHPtRj6PVdd1xc7HiWrUdm11x1MDAwNFx1MDAxM23zrNe2TVxc3bNtXYNcdTAwMWE7JDBDKGpiwtziZae+NzQ8yFx0XHUwMDA1XGJxyKKn98rK4MJhpXem27OjgdFN2E9cdTAwMWFj3CAn7C20n6PRiplrX5ZcdTAwMGVcdTAwMWVLpZew861SPLoo7DUvrqu74+t+T3VTv2uZo/ZAzlx1MDAxOWRcdTAwMDJcbsBRZJmu490ne8X1m/fRK1xmS39/ToOnX9t3f126XoVW+lx1MDAwZbhcclth/7qeXHUwMDE5XHUwMDFlYVx1MDAwMP15RVx1MDAwNzE2XHUwMDAxXHUwMDBmXHUwMDAy0/hAxlxmxVx1MDAwN1x1MDAwMFxmXHUwMDAyTCFlaJpcdTAwMWb2d+GTXHUwMDAzXGKYXHUwMDAzXGJIOSbq75Txa4WaXHSEXHUwMDAwXHUwMDEyIVx1MDAxY1x1MDAxYriV89A5rkFMnVOrelx0r92HM3RVr1gxXHUwMDFlPqdXO7p5wEu3oFx1MDAxZj6cVm9cdTAwMGJcdTAwMWRn0O7d8ONfk095e75cdTAwMTlcdTAwMDT+U27OhFxcXHUwMDBlZ83DSq9+dXFcXKXAqoubfqdbOlx1MDAxN5k5Q1x1MDAwMlx1MDAxYZAhOqZmIWdcYmKDQjVZMUlcdTAwMDRcImiLWVx1MDAwZcxQXHUwMDBlzKhkSFxyXG5Im3f4TMwoglx1MDAxNEqC1shcdTAwMTnbrz1dPPZcdTAwMWar+H6/bLaPrjzkldfA2dx6q1x1MDAxN6TUabXrP3onwL4o9Fx1MDAwN7+Kd/0l1Fx1MDAwYmpXg+Oib7ZcdTAwMWHkXHUwMDAwXHUwMDA3Jr7snsrGXHUwMDEy6jVcdTAwMWL2hX102nhcdTAwMTnIXHUwMDAzy72+va92flx1MDAxNJdQryXpS5vC+kn78fS6fPFiPVxcXHUwMDFjZqw3k46JmH1+SMdcbjdF5NSOf175g5P7g7szVCjfhtmdbUFcZiEgoqk6RqJp6U3GJDWI1j1cdTAwMDVcZlx1MDAxNXEx/ltVbGW+Ns7jWqjxXHUwMDEwhMemnSyuXHUwMDA1I0JcdFx1MDAxZVqn5l19O2t16E/UQVx1MDAwN7DlnUvaXGYqcFxyXHUwMDFhks23kEvyLdp7/PigvFd94Fx1MDAxNd5utF3zW9l3cjBcdJRHriDT4yNcdTAwMDUlXHUwMDEzTEI6XHIlXHUwMDA0ZMK3gFssV4YlyY4lpypcdTAwMDJWXHUwMDExbZonMptKqGMxrIR5fVRcdTAwMTbwXufHS+/spFjxxFx1MDAxNeFeKTx31zBcdTAwMDOvd6Y8rjbK9cCqVarN4H6vdVx1MDAxYjL3ZyE7lVxmXHUwMDE5elVcbnCGJJaETlCJWFxulVhcdTAwMWFcXE2V28h69VTS7FRcIqRcdTAwMDZcdTAwMGKAXHUwMDE4X1mo1Fx1MDAxY+tVlTXOlX16TYPnn1x1MDAwZr1Wj+GTX1DahaP65vivcDlUXlx1MDAwYnBXK740bz3nu9LLblx1MDAxN4jOfXYqMZqzWIxlXG6VUi9cdTAwMTdvqXxfIM6yc0aZUF1cZnm+5S5cdTAwMTW7XHUwMDEzXHUwMDE1vPM1rv/K8tFe46Fs35xcdTAwMWYy/uPuzEPPt6U1xMtcdTAwMTl90iWtK89fMEg0coIxpXyGSEx3OGUhXHUwMDE5QENAXGbGn1x1MDAxNLC2XFzN4Iqnc1x1MDAxNVx1MDAxOdzbXHUwMDAwodeS30nclNZBoDzOtGltqizCXHIjXHUwMDA0XHUwMDE5j73AynG7PjyqXFw/VM+efsE2bFx1MDAxZWDQbYjn1S5cdTAwMDOPi7u+k2z7P7FcdTAwMTaCeHPB+P//fk69mlwiQ1x1MDAwMlx1MDAxNtk7YLlun81L4vapXHUwMDBlcc1eWPI7XHUwMDFkJ1TdcqZfaUqCQzNcYveUeTlea9KMXvduXHUwMDBmM+w1abv1m/1enFJt4WZXXHUwMDBmxZRcdTAwMWTanrX4ifNX3ec+XHUwMDExXHUwMDFiUspowVx1MDAxZJJpXHUwMDEy9FtcdTAwMTe1gLVtc1xuNtW++HdJpbPdhv+USUnnS/48JSWQKJOJLHdcdTAwMTQ5pO9cdTAwMTWQ2N7dWD8hjXR4q6BcdTAwMTNcbio+rKBcdTAwMTRx9UEx1yODglx1MDAxMkEgXHUwMDEwaJ3R+sPpRfPpuDr47nLr5nvddtD5w9lq/YrVXGIoxMzAjMroXHUwMDEzv13Z+sJcbqSSYMZy3pWga+qu1eltZvUrYENIXGaEMklMiIq1kF3gses+pMHzI665XHUwMDFhTJLHXHUwMDBi/pRcdTAwMDbPX1xunq/BwoCRbs3crmXIQFxmRKZcdTAwMTltXHUwMDFkRmqMt2o8Q43lh9WYY4E5pqnh40w1xohTSjF6l1x1MDAxYS9zc2BVgolcckhJilHqT0HZ48JcdTAwMWGENHjkRGS9bTZcctM1bIB8SkNcdTAwMTCk5ElcYkaARFguUT3n77cuVs9oq5XiP6We85fs56on51x1MDAwNkWL5Vx1MDAxM0phYFx1MDAxY2E41ky0lcxcdTAwMTmSWfywZFwiQqhcdTAwMTDxTfwsS1x1MDAwMFxuXHUwMDE0ZY2AvWtle5lbN6vRTI6V4KFcdTAwMTk+Zlx1MDAwMS1WTKx3Y3Heuybtf+quXHJcdTAwMTDJXHUwMDAyXHUwMDE4OXNQKD1cdTAwMWHpJEOUglhcdTAwMDd9TCnn74JnUsrRXHUwMDA2uPJcdTAwMDL+lFLO30bJrZQpsb7CxIhcdTAwMWZcdTAwMWXeKuVCpdz7sFJCrqNcdTAwMTeafjh9tlRihClRjulKpDLPftpcdTAwMWaQyncpZYabJs0/edNcdTAwMDboZFImIcdAxybLksn5x1x1MDAxMrKE428nXHUwMDEy8HRcdTAwMGLWJJPpKVx1MDAxNFMyObGi9XqqXHUwMDAyXHUwMDFhKrRCQlx1MDAxMIFYXCJdXHUwMDAxpuzeXHUwMDEybFx1MDAwMKaGgaGUPJ+/TDIjc1jyaYpSnqOHRFx1MDAxZlx1MDAwNJWpx61nbvMyJaRaR1dcdTAwMTCnv1NIh6ap3n2y66Iu872w5rxcZidcdTAwMTUwUXpgdlx1MDAxY1ePXHUwMDEynair6Dotb6gzqtl2sFx1MDAxYu+J0Gma7viC0O9G3zZVjabj2cFhlkw6P3Bajme69fmNN/uhX7V7o+aHQd+Od5BdXHUwMDE5L2dcdTAwMTmvypvOeHpaSFx1MDAwNsaxMChcdTAwMTZcbnFcYlx1MDAxOVFcdTAwMGVmNHtcdTAwMGV9XCJEjajros1kaui1z9R0vr9cZvNcdTAwMWPglnOAK7ngKnSX+c5nXHUwMDEwQCAhUL7rfMZKyS267s5Z4Fv9pnrYOsDtOJZcdTAwMTU/j5Rgd0FcIl+S3fTmL1x1MDAwN930TJMs6EJsXGKiwjAhKWKYRYvgc9AlwlAmoryR7Vx1MDAxNJ2H3f1cdTAwMWPsYsQlkyA1fJnJLmWUXG4mybvOeqxcdTAwMTTdXHUwMDAzx1Wo2dZG8bsgQTDJ75x3WFx1MDAwZcTpqVx1MDAxM1x1MDAxOSDmkFx1MDAxYZyrgVLjjyWl0VDp3mMghWGMXHI1rls3e7Vu9kFcdTAwMGXiXHUwMDAxITp5OPV410ziieCU4Xcm06+U+JLu8lxygHxB9lxcXHUwMDEy8slmL4fr9OSLTFxcq5r1XHUwMDEyqeBAQsBcdTAwMTJ5QjxccmyCXGYmt1PzSrH+liNcdTAwMTdBYlxm1ayca1x1MDAxZZfKw8KMgc1cdTAwMGKez1x1MDAwMqdpb1x1MDAwMtZcdTAwMGJcdTAwMTLwklgn2r1cdTAwMWOu09M3MnDNJDKwslxmwCllkKLJnFx1MDAwNiTSuNaF22WxXHUwMDE1g13JXHUwMDAxNkQqbkIyZ/aDmqvVJC/Y5rnoJVVhy1x1MDAwZjZi0l6QyDc1aU81fTmAp+eNZFx1MDAwMZwxQ++0XG5cIpWWJ1x1MDAxZHJcdTAwMDLTXHUwMDAwVyGfoYxDbFfE8kXVh9mZ5Vx1MDAwNOhjXjl/P1x1MDAwZmRYXHUwMDEyXGbZ5s3G44hUmXrf3YygekG238ygeupcdTAwMTWWg3B6LkpcdTAwMDaEXHUwMDExgFx1MDAwNlx1MDAwN3DCkZ69JEaRXHUwMDAxQfqvptuSO4vc79nJlVxiYD6RxZSBXFyhJ1qBNm+qXHUwMDFkXHUwMDE5/UbguiBpMFx1MDAxZNelU5qe8JCBUkq4gdQ4XHUwMDEzSVx1MDAxMFx1MDAwNyyRXHUwMDFkTJBiWG9ISX3mgXBcdTAwMTItk7yBy6hcdTAwMDG42EbLucA9yrGspaJcdTAwMWKAIGW5lrVcdTAwMTjjULlC78tcdTAwMTFeKbqXlf3q/iaAuyBHLVx0bqLdubH99Fx1MDAxYUftmt1uLVS9uvt23kVcdTAwMTmRYyX6YFRcdTAwMTba3ej9h0UnvmXve2bDTfbw7qNjP+3NZ+bTq3poZuzhcbDfn37/XHUwMDFmPOBVqSJ9<!-- payload-end --></metadata><defs><style class="style-fonts">
      @font-face { font-family: Excalifont; src: url(https://esm.sh/@excalidraw/excalidraw@0.18.0/dist/prod/fonts/Excalifont/Excalifont-Regular-a88b72a24fb54c9f94e3b5fdaa7481c9.woff2); }</style></defs><rect x="0" y="0" width="909.3499755859375" height="505" fill="transparent"/><g stroke-linecap="round" transform="translate(629.875 30) rotate(0 124.73748779296875 175)"><path d="M0 0 C76.3 -1.35, 152.8 -1.09, 249.47 0 M0 0 C62.71 2.09, 124.33 1.53, 249.47 0 M249.47 0 C249.28 122.27, 249.55 242.95, 249.47 350 M249.47 0 C246.61 89.62, 247.32 178.31, 249.47 350 M249.47 350 C198.26 349.75, 151.03 350.82, 0 350 M249.47 350 C181.83 349.66, 114.58 350.13, 0 350 M0 350 C0.13 218.46, -1.67 89.91, 0 0 M0 350 C-0.93 224.07, -1.11 98.88, 0 0" stroke="#1e1e1e" stroke-width="2" fill="none"/></g><g transform="translate(683.0792846679688 35) rotate(0 71.533203125 12.5)"><text x="71.533203125" y="17.619999999999997" font-family="Excalifont, Xiaolai, Segoe UI Emoji" font-size="20px" fill="#1e1e1e" text-anchor="middle" style="white-space: pre;" direction="ltr" dominant-baseline="alphabetic">Swiggy/Amazon</text></g><g stroke-linecap="round" transform="translate(30 230) rotate(0 83.17500305175781 30)"><path d="M0 0 C56.41 -0.44, 114.73 -0.52, 166.35 0 M0 0 C45.33 -1.1, 89.36 -0.64, 166.35 0 M166.35 0 C166.96 17.94, 165.28 34.26, 166.35 60 M166.35 0 C167.23 12.23, 166.63 23.22, 166.35 60 M166.35 60 C115.42 60.76, 67.27 58.17, 0 60 M166.35 60 C105.3 58.07, 44.88 59.62, 0 60 M0 60 C-1.65 38.39, 1.16 20.16, 0 0 M0 60 C-0.05 38.88, 0.6 17.26, 0 0" stroke="#1e1e1e" stroke-width="2" fill="none"/></g><g transform="translate(60.53828430175781 247.5) rotate(0 52.63671875 12.5)"><text x="52.63671875" y="17.619999999999997" font-family="Excalifont, Xiaolai, Segoe UI Emoji" font-size="20px" fill="#1e1e1e" text-anchor="middle" style="white-space: pre;" direction="ltr" dominant-baseline="alphabetic">All Products</text></g><g stroke-linecap="round" transform="translate(303.16250228881836 230) rotate(0 106.7562484741211 30)"><path d="M0 0 C63.78 0.37, 128.32 0.94, 213.51 0 M0 0 C47.58 -1.22, 95.55 -1.23, 213.51 0 M213.51 0 C213.85 15.63, 212.58 31.15, 213.51 60 M213.51 0 C213.06 18.62, 211.94 36.74, 213.51 60 M213.51 60 C141.09 58.45, 64.68 59.78, 0 60 M213.51 60 C151.78 60.35, 92.14 60.26, 0 60 M0 60 C-1.6 44.45, 0.68 27.98, 0 0 M0 60 C-0.06 46.35, -0.3 31.66, 0 0" stroke="#1e1e1e" stroke-width="2" fill="none"/></g><g transform="translate(335.84648513793945 247.5) rotate(0 74.072265625 12.5)"><text x="74.072265625" y="17.619999999999997" font-family="Excalifont, Xiaolai, Segoe UI Emoji" font-size="20px" fill="#1e1e1e" text-anchor="middle" style="white-space: pre;" direction="ltr" dominant-baseline="alphabetic">Filtered Products</text></g><g stroke-linecap="round" transform="translate(706.8812522888184 65) rotate(0 47.73125076293945 30)"><path d="M0 0 C24.52 -0.57, 50.95 -1.1, 95.46 0 M0 0 C35.01 0.46, 70.07 -0.26, 95.46 0 M95.46 0 C94.76 16.9, 93.72 35.76, 95.46 60 M95.46 0 C96.2 11.22, 95.94 24.9, 95.46 60 M95.46 60 C73.58 60.32, 53.4 60.65, 0 60 M95.46 60 C73.67 59.93, 51.26 58.97, 0 60 M0 60 C1.56 38.19, 1.67 12.63, 0 0 M0 60 C0.47 38.81, -0.39 17.99, 0 0" stroke="#1e1e1e" stroke-width="2" fill="none"/></g><g transform="translate(737.7716827392578 82.5) rotate(0 16.8408203125 12.5)"><text x="16.8408203125" y="17.619999999999997" font-family="Excalifont, Xiaolai, Segoe UI Emoji" font-size="20px" fill="#1e1e1e" text-anchor="middle" style="white-space: pre;" direction="ltr" dominant-baseline="alphabetic">City</text></g><g stroke-linecap="round" transform="translate(702.3562526702881 175) rotate(0 52.256248474121094 30)"><path d="M0 0 C22.05 0.04, 44.59 2.01, 104.51 0 M0 0 C38.37 -0.01, 75.53 0.03, 104.51 0 M104.51 0 C103.71 18.29, 104.75 38.58, 104.51 60 M104.51 0 C103.59 23.03, 105.06 45.39, 104.51 60 M104.51 60 C80.3 61.24, 57.04 58.58, 0 60 M104.51 60 C74.5 60.96, 42.8 61.38, 0 60 M0 60 C1.51 48.51, -1.06 35.83, 0 0 M0 60 C-0.13 44.15, 0.26 29.89, 0 0" stroke="#1e1e1e" stroke-width="2" fill="none"/></g><g transform="translate(733.2648448944092 192.5) rotate(0 21.34765625 12.5)"><text x="21.34765625" y="17.619999999999997" font-family="Excalifont, Xiaolai, Segoe UI Emoji" font-size="20px" fill="#1e1e1e" text-anchor="middle" style="white-space: pre;" direction="ltr" dominant-baseline="alphabetic">Price</text></g><g stroke-linecap="round" transform="translate(684.7500038146973 285) rotate(0 69.86250305175781 30)"><path d="M0 0 C34.72 -0.83, 72.04 1.96, 139.73 0 M0 0 C42.1 -0.91, 84.3 -0.29, 139.73 0 M139.73 0 C137.48 19.18, 137.52 39.8, 139.73 60 M139.73 0 C139.84 19.21, 139.14 36.74, 139.73 60 M139.73 60 C85.42 59.28, 27.11 59.45, 0 60 M139.73 60 C109.84 60.78, 79.96 60.12, 0 60 M0 60 C0.82 43.9, 0.76 29.65, 0 0 M0 60 C-0.79 40.84, 0.12 21.08, 0 0" stroke="#1e1e1e" stroke-width="2" fill="none"/></g><g transform="translate(714.3293037414551 302.5) rotate(0 40.283203125 12.5)"><text x="40.283203125" y="17.619999999999997" font-family="Excalifont, Xiaolai, Segoe UI Emoji" font-size="20px" fill="#1e1e1e" text-anchor="middle" style="white-space: pre;" direction="ltr" dominant-baseline="alphabetic">Category</text></g><g stroke-linecap="round" transform="translate(654.875 415) rotate(0 99.73750305175781 30)"><path d="M0 0 C45.65 1.97, 95.65 0.66, 199.48 0 M0 0 C58.44 0.11, 117.73 0.31, 199.48 0 M199.48 0 C199.33 13.29, 200.89 30.68, 199.48 60 M199.48 0 C199.35 18.69, 198.14 39.82, 199.48 60 M199.48 60 C141.16 60, 83.31 59.67, 0 60 M199.48 60 C129.02 61.67, 58.14 60.29, 0 60 M0 60 C-1.74 40.01, -1.3 18.4, 0 0 M0 60 C0.4 41.12, 0.21 21.36, 0 0" stroke="#1e1e1e" stroke-width="2" fill="none"/></g><g transform="translate(688.2550811767578 432.5) rotate(0 66.357421875 12.5)"><text x="66.357421875" y="17.619999999999997" font-family="Excalifont, Xiaolai, Segoe UI Emoji" font-size="20px" fill="#1e1e1e" text-anchor="middle" style="white-space: pre;" direction="ltr" dominant-baseline="alphabetic">Filtered Results</text></g><g mask="url(#mask-y7C_0utqNR_-miyhsZ7Lj)" stroke-linecap="round"><g transform="translate(196.84999618530273 260) rotate(0 50.90650000000001 0)"><path d="M-0.93 0.81 C8.12 0.87, 36.54 0.06, 53.66 0.02 C70.77 -0.02, 93.73 0.63, 101.74 0.58 M0.79 0.19 C9.79 0.49, 36.41 1.85, 53.1 1.57 C69.79 1.29, 92.8 -1.31, 100.94 -1.47" stroke="#1e1e1e" stroke-width="2" fill="none"/></g><g transform="translate(196.84999618530273 260) rotate(0 50.90650000000001 0)"><path d="M78.53 8.31 C85.49 7.3, 89.76 3.5, 100.94 -1.47 M78.53 8.31 C86.3 5.34, 94.31 1.1, 100.94 -1.47" stroke="#1e1e1e" stroke-width="2" fill="none"/></g><g transform="translate(196.84999618530273 260) rotate(0 50.90650000000001 0)"><path d="M77.49 -8.39 C84.66 -5.23, 89.19 -4.87, 100.94 -1.47 M77.49 -8.39 C85.61 -5.55, 93.98 -3.98, 100.94 -1.47" stroke="#1e1e1e" stroke-width="2" fill="none"/></g></g><mask id="mask-y7C_0utqNR_-miyhsZ7Lj"><rect x="0" y="0" fill="#fff" width="398.66299618530275" height="360"/><rect x="223.70130868530273" y="247.5" fill="#000" width="52.109375" height="25" opacity="1"/></mask><g transform="translate(223.70130868530273 247.5) rotate(0 23.55684049922229 12.570804740983661)"><text x="26.0546875" y="17.619999999999997" font-family="Excalifont, Xiaolai, Segoe UI Emoji" font-size="20px" fill="#1e1e1e" text-anchor="middle" style="white-space: pre;" direction="ltr" dominant-baseline="alphabetic">Filters</text></g><g mask="url(#mask-RU4CmghTOsM0eU-uyjAfu)" stroke-linecap="round"><g transform="translate(436.9089961853027 290) rotate(0 106.52332633964903 84.02198294097232)"><path d="M0.81 0.75 C23.6 26.73, 104.27 129.24, 136.39 154.93 C168.51 180.62, 180.74 154.91, 193.54 154.92 C206.34 154.92, 209.78 154.91, 213.18 154.96 M-0.23 0.1 C22.44 26.35, 103.23 130.42, 135.45 156.43 C167.67 182.45, 180.11 156.26, 193.08 156.19 C206.05 156.13, 210.01 156.13, 213.27 156.05" stroke="#1e1e1e" stroke-width="2" fill="none"/></g><g transform="translate(436.9089961853027 290) rotate(0 106.52332633964903 84.02198294097232)"><path d="M203.7 159.71 C206.94 158.68, 208.81 158.17, 213.27 156.05 M203.7 159.71 C206.71 158.73, 209.08 157.33, 213.27 156.05" stroke="#1e1e1e" stroke-width="2" fill="none"/></g><g transform="translate(436.9089961853027 290) rotate(0 106.52332633964903 84.02198294097232)"><path d="M203.59 152.7 C206.8 153.55, 208.71 154.92, 213.27 156.05 M203.59 152.7 C206.61 153.77, 209.02 154.43, 213.27 156.05" stroke="#1e1e1e" stroke-width="2" fill="none"/></g></g><mask id="mask-RU4CmghTOsM0eU-uyjAfu"><rect x="0" y="0" fill="#fff" width="750.3749961853027" height="545"/><rect x="569.2907980319424" y="443.74371958057725" fill="#000" width="65.078125" height="25" opacity="1"/></mask><g transform="translate(569.2907980319425 443.74371958057725) rotate(0 -25.8584755069906 -69.72173663960493)"><text x="32.5390625" y="17.619999999999997" font-family="Excalifont, Xiaolai, Segoe UI Emoji" font-size="20px" fill="#1e1e1e" text-anchor="middle" style="white-space: pre;" direction="ltr" dominant-baseline="alphabetic">WHERE</text></g><g stroke-linecap="round"><g transform="translate(440.11999618530274 230) rotate(0 131.13049999999998 -67.5)"><path d="M0.75 0.02 C23.09 -22.52, 101.6 -111.87, 133.08 -134.42 C164.57 -156.98, 168.15 -135.27, 189.67 -135.29 C211.2 -135.31, 250.09 -134.5, 262.22 -134.55 M-0.32 -1.01 C21.94 -23.98, 100.57 -114.06, 132.1 -136.25 C163.63 -158.43, 167.14 -134.63, 188.86 -134.12 C210.59 -133.62, 250.41 -132.99, 262.45 -133.21" stroke="#1e1e1e" stroke-width="2" fill="none"/></g><g transform="translate(440.11999618530274 230) rotate(0 131.13049999999998 -67.5)"><path d="M238.96 -124.66 C244.17 -126.83, 250.33 -128.76, 262.45 -133.21 M238.96 -124.66 C245.62 -127.57, 251.47 -130.45, 262.45 -133.21" stroke="#1e1e1e" stroke-width="2" fill="none"/></g><g transform="translate(440.11999618530274 230) rotate(0 131.13049999999998 -67.5)"><path d="M238.96 -141.76 C244.29 -140.12, 250.44 -138.24, 262.45 -133.21 M238.96 -141.76 C245.62 -139.96, 251.47 -138.11, 262.45 -133.21" stroke="#1e1e1e" stroke-width="2" fill="none"/></g></g><mask/><g stroke-linecap="round"><g transform="translate(499.5219961853027 230) rotate(0 99.167 -12.5)"><path d="M0.02 -0.07 C12.27 -4.38, 52.65 -20.92, 74.33 -25.08 C96 -29.24, 109.32 -25.09, 130.06 -25.04 C150.81 -24.99, 187.5 -24.7, 198.78 -24.79 M-1.43 -1.15 C10.65 -5.33, 51.92 -19.82, 73.68 -23.59 C95.44 -27.35, 108.22 -23.74, 129.15 -23.74 C150.08 -23.74, 187.51 -23.29, 199.27 -23.57" stroke="#1e1e1e" stroke-width="2" fill="none"/></g><g transform="translate(499.5219961853027 230) rotate(0 99.167 -12.5)"><path d="M175.82 -14.89 C184.27 -17.13, 192.86 -21.76, 199.27 -23.57 M175.82 -14.89 C182.29 -17.97, 188.73 -20.03, 199.27 -23.57" stroke="#1e1e1e" stroke-width="2" fill="none"/></g><g transform="translate(499.5219961853027 230) rotate(0 99.167 -12.5)"><path d="M175.73 -32 C184.31 -27.95, 192.94 -26.29, 199.27 -23.57 M175.73 -32 C182.29 -29.99, 188.76 -26.97, 199.27 -23.57" stroke="#1e1e1e" stroke-width="2" fill="none"/></g></g><mask/><g stroke-linecap="round"><g transform="translate(499.5219961853027 290) rotate(0 90.364 12.5)"><path d="M-0.07 0.58 C12.08 4.69, 51.94 20.57, 73.67 24.71 C95.4 28.86, 112.44 25.5, 130.32 25.45 C148.19 25.41, 172.63 24.72, 180.94 24.44 M-1.57 -0.17 C10.36 4.12, 50.83 22.18, 72.68 26.1 C94.53 30.02, 111.43 23.48, 129.53 23.34 C147.63 23.2, 172.54 25.21, 181.3 25.26" stroke="#1e1e1e" stroke-width="2" fill="none"/></g><g transform="translate(499.5219961853027 290) rotate(0 90.364 12.5)"><path d="M157.49 32.88 C167.08 29.99, 174.27 27.3, 181.3 25.26 M157.49 32.88 C165.06 29.43, 173.61 26.88, 181.3 25.26" stroke="#1e1e1e" stroke-width="2" fill="none"/></g><g transform="translate(499.5219961853027 290) rotate(0 90.364 12.5)"><path d="M158.16 15.79 C167.51 19.1, 174.46 22.6, 181.3 25.26 M158.16 15.79 C165.53 18.11, 173.86 21.32, 181.3 25.26" stroke="#1e1e1e" stroke-width="2" fill="none"/></g></g><mask/></svg>