<svg version="1.1" xmlns="http://www.w3.org/2000/svg" viewBox="0 0 679 402" width="679" height="402"><!-- svg-source:excalidraw --><metadata><!-- payload-type:application/vnd.excalidraw+json --><!-- payload-version:2 --><!-- payload-start -->eyJ2ZXJzaW9uIjoiMSIsImVuY29kaW5nIjoiYnN0cmluZyIsImNvbXByZXNzZWQiOnRydWUsImVuY29kZWQiOiJ4nO1ba1PqyFx1MDAxNv3ur0hxP8yjjkw/0+mpulx1MDAxZlx1MDAxNPBcdTAwMDU+UEc93pmyXHUwMDAyaSFcdTAwMTBcdTAwMTJMXHUwMDAyiqfOf79cdTAwMWRcdTAwMTRcdTAwMTJCgPBcdTAwMTCZcygtXHUwMDBiOp1+rrX27t7bbzuKkvF7bZH5U8mIl6pumYarP2e+XHUwMDA05V3heqZjy0eo/91zOm61X7Pu+23vzz/+0NvtbM30K47TzFad1ttrwlx1MDAxMi1h+56s+D/5XVG+9f/KJ6ZcdTAwMTG8rFx1MDAxZFx1MDAxNq+6vb2jg9xTyylcdTAwMWOVirxcXLvuv9qvNFx1MDAxOI0rqr5u1yxcdTAwMTE+epHlYPitN/Lt2TT8uiyBNCyrXHUwMDBis1b3ZaFKh2VvTUbf9HzXaYqcYzlu0O9/VFVccrus6NVmzXU6tlx1MDAxMVZcdTAwMTB68Fx1MDAxM9Z5NC3ryu/1m5WLJJcwXHUwMDEza/z2fXAoVj7pLdlhrW5cdTAwMGIvWEM4LHXaetX0g2lDXHUwMDEwXHUwMDBlP1x1MDAxOF372Ogv9z/hmFxcvSWOg/W2O5Y1LDZtQ1x1MDAwNKuY0cFIb7bx3ttIbU+IoFx1MDAwNYY441x1MDAwNLJw9CEy1HjZmWP3MYIw0ShEJOzay0tk+P1cdTAwMTZcdTAwMWZ1y1x1MDAxM+FcdTAwMWFcdTAwMDf9XHUwMDE34qiJXCJnXHUwMDA0XHUwMDE4vnjxh4OP4OqgRMpn182v+3fO8clppZIv92g3M6z3/Utys28vv3Ryl/ukXbxrnVx1MDAxZL82UNdcdTAwMDBcdTAwMGZcdTAwMDft0V5cdTAwMDb9667rPKdt9+ShXHUwMDAw7NwtQKJ9Rtr7r+TCLGoraLf00sV2mcH29enD/VX9VPDma2lcdTAwMDXtklpcdTAwMTk+XHUwMDE1XHUwMDAx9lxyjp16qfGkvmArXbvvn0JcZnbahv6235AxXHUwMDE1qlx1MDAxYdKgqobItUy7XHUwMDE5h5zlVJshRHZcIlx1MDAwM46pyDlCPb9Ya1x1MDAxZd1cdTAwMWOA1118f6lcdTAwMTernVx1MDAwNVVcdTAwMDQxttWRXHUwMDA1dVx1MDAwNKbXXHUwMDExylx1MDAxMINEQ2GfMVx1MDAwYlx1MDAxMy1cdTAwMWLoiIRcckOQSTVZn5JcdTAwMWOKVt7rPpzkzVx1MDAwZXk8ds2D0n3+Ym6kXHUwMDEzvFx1MDAxYaTbpzf5nlx0j/jV40NZL9drjcNyIzXSicq3XHUwMDE2cyVIR+mRzlVcdTAwMDBcdTAwMTilcMw6TrOYVGKGMlx1MDAwMtH6gFx1MDAwZVx1MDAxZvdPL1x1MDAwZYuPh69u7/BGta/MXHUwMDBi2tiazFx1MDAxZtRkVkpcdTAwMTBcdTAwMTJcXMl1uifXJ719UPFcdTAwMWZcdTAwMWFPXHUwMDBiXHUwMDBiydZoLi4lOL2UQFxiNPnLeZKWTLaagCCkYvni+sTEIy9cclx1MDAwN+ZcdTAwMWZ3z5v1kqqV7/bgdePTrOZcci1cdTAwMTlcdTAwMDXPXHUwMDEzXHUwMDBmOaeZfy7euCeodzZcdTAwMGV22UdcZueMjsA8gt5cdTAwMDHKXHUwMDEzMI5cIqo9XHUwMDFi5JzzqSD3Xd322ror92NcdTAwMTGgw81cdTAwMDE6SVx1MDAwZnRVJZDipDPmZJRzXHJcdTAwMDOVULaQyVxcJVx1MDAxMIfFbceMkyj8pISY6H9cdTAwMTl+/ufL7NpcdTAwMTJiYf0xLlm65+ecVsv05UQugkGMLbOvu/6+3Fx1MDAxYdOuxZ9cdNuY8KT/1l5gtupCXHUwMDFm22j5XvzZXHUwMDE0Spa7d1x1MDAwNJzvXHUwMDFl3lx1MDAxMVx1MDAwMo9cdTAwMGIlWrm9a92loSQl4TXClpPLcpLOwUmoYcTU+U5sRFx1MDAxYVx1MDAxZUJcdTAwMTf0Y7ekXFwzKad78THPddRQqtlRU1x0Qbg7XHUwMDAzXlx1MDAxMjUsXHUwMDFiMjOE02xeQlx1MDAxMfx8JDU3yC9Uk6lcdTAwMTm6YYP9XHUwMDE4oO57OPZ3d5GqRFx1MDAwM1x1MDAxNCZcdTAwMWU9SbxsaEgpo1g6meu8rv0qTnj5/OCy9nibu++x247uo+7c7lwi/XxBiEA8Vn95QYjs/HtY5ThFXGYlgJpT7Vx1MDAwNFx1MDAxM0RZqHKEXHUwMDAxXHUwMDFi/I3UqentYDHJXHUwMDE4lkaUZ9JcdTAwMTCmX0tFhrA7Nlx1MDAwNppmXHUwMDEwc4lcXFxcn4RVcZ5TnVx1MDAxM6bfNkzTP0pQXFxcdTAwMDBpqFx1MDAwYj+CXHUwMDAwXHUwMDFhToDTtSogW15cdTAwMDGRSlx0wDjxKDFRXHUwMDAxXHUwMDEx0FxigOpaXHUwMDAzVmecf23VO5a/f1x1MDAwYixQ/lo9Pa4uoICh0n+WXHUwMDAy7n6GXHUwMDA0ptafyFxclpS81Kqbqss1XHTc9GvP+Vx1MDAxYzxcdTAwMWVeXHUwMDAx/lxi+rZ+XHUwMDA3T1te3lxiUDWs8cjNXlx1MDAxYVx1MDAwN09jUik41tZ4XHUwMDFm2DJcdTAwMWVqXHUwMDE1s2ZcdTAwMWLNovFi/nV/Vjh5vJpf3kLIbVx1MDAxZLxcdTAwMGZVt9Vcbuqa1G168GU+91xykfGIxr9Z3j7BfePL61x1MDAxYuNcdTAwMThAXGLgXFzuXHUwMDFi1zBDgEUm8OHy1mbWbnn3id7S4mmjYbaebqB997Gxva339tN5b8lJbWP6Nlx1MDAwMtI3eeNZSFxixVx1MDAxMMVELqp6XHUwMDAzlcMwyyDgOFx1MDAxMvtcbq/R51E7XHUwMDAwwE/iye3NXHUwMDExwsWMq1x1MDAwMCdeyeF4WVx1MDAxONuS51isLVx1MDAxOMH9XHUwMDEw1emDTM79L0+4kd1zbP/KfH3L1Vx1MDAxYSk90FumXHUwMDE1LDdcdTAwMWRpYs+STmHQTlWONtqSXFxcdTAwMDHfrOrWsELLNIxoXHUwMDFhQlU2qpu2cNNcdTAwMTA647hmzbR16zpx2HrHdy6F9zZw3+2I6IqIo1x1MDAwMfphXHUwMDE20Sn0TM5cdTAwMTRbhp6cb/m5XG5+7s/BT0BcdTAwMDCSpyoy5l5MJSjSOIRcdTAwMWFiIei3XHUwMDA0XHUwMDFkJeiMXHUwMDFj3XVcdTAwMTA0OcMtXHUwMDA1QVx0x1mOKNNSXHUwMDE5UFx0WMlnjWxcdTAwMTmanqG5Of5cdTAwMDNBxYyhxCPBZH7KXHUwMDAzXHUwMDFlhOqCicNcdTAwMWbKz6ty6SGv+3pF98Qm8HRGhnGcp8nDX1xyX5OTyJbia6JF3Vx1MDAxMnZ+wubnISxVXHUwMDExpiTpknKKRWWIXHUwMDEyLFxy8ZaxM1x1MDAxODsjlXedjE2O46dgLEIwq1x1MDAxMqDG+MrHk0ggQ9L/1Zam6k9cdTAwMTVqKKRnK1x0uFxuwFxc7i/GmFx1MDAwM8Q/JPVySa5cdTAwMTZKhdy18rtycHl+qrR0v1pcdTAwMTfeJpB2RqrVXHUwMDE4aafPYzXsTY5Bp2Ev5FlcdTAwMTS3oH3okvEkXGKo4SxlYOS0u6XwTFxuXHUwMDFmpKcwllx1MDAxZTJGLDHpYVwih7lKqYbhXHUwMDA2cvhS+Fx1MDAxZNf2XHUwMDE03bKUX0W2lv2iMKoqrvPs/bZcdFSekTVcdTAwMTSncrrprIbRyWHXXHUwMDE0jIZcZmYx6XtuMUaz8bC/hFpcdTAwMTZcdTAwMDOiJlx1MDAxYWWyZfRcdTAwMDRGXHUwMDFmpme0PL4yXHUwMDE1JaZeTyS0qlx1MDAwMcg5iby0KYRONGbK7VHhsqBcdTAwMDTLq/z3b/uXo54hXFzppFx1MDAxYb9sXHUwMDAyx2ckzqQy1yMzVFx1MDAxMie4XHUwMDFh1idHI9OwXuNjd8tv11xc48FwXHUwMDE0hMxHT9hbzs/k/NFcdTAwMWM30SqDwX9OzHlcdTAwMTNccpDGgEY38KZrYPjkxkkuXG5DcYUnnU1P+XVAXHUwMDEw0/7bXHUwMDFl0mIjbPuMlJJJtn3aXHUwMDE0laRcdTAwMTnOTfyd90h8Rm+3r3y5VZlBsFtC0zTeV2sg/m9lvmiHK9UvOnVcZlGw9YpcdTAwMTXftkzXXHUwMDE0z/vTmbjzrj9cdTAwMDFcdTAwMTNFP7Pj+873/1x1MDAwM1x1MDAwZTfoWyJ9<!-- payload-end --></metadata><defs><style class="style-fonts">
      @font-face { font-family: Excalifont; src: url(https://esm.sh/@excalidraw/excalidraw@0.18.0/dist/prod/fonts/Excalifont/Excalifont-Regular-a88b72a24fb54c9f94e3b5fdaa7481c9.woff2); }</style></defs><rect x="0" y="0" width="679" height="402" fill="transparent"/><g stroke-linecap="round" transform="translate(30 30) rotate(0 75 32.5)"><path d="M-0.2 -0.73 L149.92 -1.02 L151.09 66.92 L-1.45 65.51" stroke="none" stroke-width="0" fill="#eaeaea"/><path d="M0 0 C36.01 -0.9, 76.92 0.31, 150 0 M0 0 C50.22 0.27, 99.28 1.79, 150 0 M150 0 C147.86 15.39, 148.08 29.41, 150 65 M150 0 C150.87 19.01, 150.54 37.64, 150 65 M150 65 C112.91 65.69, 72.63 66.76, 0 65 M150 65 C94.21 65.46, 37.92 67.19, 0 65 M0 65 C0.63 46.1, 1.43 23.91, 0 0 M0 65 C0.84 46.48, 0.82 26.4, 0 0" stroke="#666" stroke-width="2" fill="none"/></g><g transform="translate(89.14453125 52.5) rotate(0 15.85546875 10)"><text x="15.85546875" y="14.096" font-family="Excalifont, Xiaolai, Segoe UI Emoji" font-size="16px" fill="#000" text-anchor="middle" style="white-space: pre;" direction="ltr" dominant-baseline="alphabetic">User</text></g><g stroke-linecap="round" transform="translate(30 307) rotate(0 75 32.5)"><path d="M-0.73 -0.08 L148.98 1.09 L151.92 63.55 L0.51 63.2" stroke="none" stroke-width="0" fill="#eaeaea"/><path d="M0 0 C42.56 2.41, 87.18 2.11, 150 0 M0 0 C54.38 -0.89, 110.94 -1.46, 150 0 M150 0 C149.61 16, 148.06 35.42, 150 65 M150 0 C149.11 22.41, 148.44 43.81, 150 65 M150 65 C102.69 64.38, 55.67 67.11, 0 65 M150 65 C93.72 63.68, 40.12 64.73, 0 65 M0 65 C1.79 42.58, -0.32 16.17, 0 0 M0 65 C-0.08 52.04, -1.21 38.61, 0 0" stroke="#666" stroke-width="2" fill="none"/></g><g transform="translate(89.14453125 329.5) rotate(0 15.85546875 10)"><text x="15.85546875" y="14.096" font-family="Excalifont, Xiaolai, Segoe UI Emoji" font-size="16px" fill="#000" text-anchor="middle" style="white-space: pre;" direction="ltr" dominant-baseline="alphabetic">User</text></g><g stroke-linecap="round" transform="translate(499 30) rotate(0 75 32.5)"><path d="M-0.08 -1.02 L151.09 1.92 L148.55 65.51 L-1.8 64.63" stroke="none" stroke-width="0" fill="#eaeaea"/><path d="M0 0 C46.39 0.99, 91.58 1.98, 150 0 M0 0 C35.57 1.86, 70.6 0.74, 150 0 M150 0 C147.62 15.78, 149.3 35.86, 150 65 M150 0 C150.67 12.51, 149.93 27.13, 150 65 M150 65 C104.48 67.42, 63.01 66.96, 0 65 M150 65 C89.92 64.35, 31.86 64.32, 0 65 M0 65 C1.55 50.56, -0.53 36.01, 0 0 M0 65 C0.05 39.65, -0.23 15.31, 0 0" stroke="#666" stroke-width="2" fill="none"/></g><g transform="translate(523.92578125 52.5) rotate(0 50.07421875 10)"><text x="50.07421875" y="14.096" font-family="Excalifont, Xiaolai, Segoe UI Emoji" font-size="16px" fill="#000" text-anchor="middle" style="white-space: pre;" direction="ltr" dominant-baseline="alphabetic">SQL_Database</text></g><g stroke-linecap="round" transform="translate(499 307) rotate(0 75 32.5)"><path d="M-1.02 1.09 L151.92 -1.45 L150.51 63.2 L-0.37 65.28" stroke="none" stroke-width="0" fill="#eaeaea"/><path d="M0 0 C30.45 -0.07, 61.53 -1.94, 150 0 M0 0 C54.42 -0.56, 106.87 -0.26, 150 0 M150 0 C148.19 13.06, 150.75 24.39, 150 65 M150 0 C148.86 22.96, 150.02 46.8, 150 65 M150 65 C99.84 65.42, 47.36 65.89, 0 65 M150 65 C109.35 63.64, 67.88 62.63, 0 65 M0 65 C-1.3 41.71, -2.34 20.35, 0 0 M0 65 C-0.97 44.1, -0.65 23.35, 0 0" stroke="#666" stroke-width="2" fill="none"/></g><g transform="translate(523.92578125 329.5) rotate(0 50.07421875 10)"><text x="50.07421875" y="14.096" font-family="Excalifont, Xiaolai, Segoe UI Emoji" font-size="16px" fill="#000" text-anchor="middle" style="white-space: pre;" direction="ltr" dominant-baseline="alphabetic">SQL_Database</text></g><g stroke-linecap="round"><g transform="translate(105 95) rotate(0 0 106)"><path d="M0 0 C1.4 55.79, -0.25 110.22, 0 212 M0 0 C-0.59 49.1, -0.32 97.81, 0 212" stroke="#999" stroke-width="1" fill="none"/></g></g><mask/><g stroke-linecap="round"><g transform="translate(574 95) rotate(0 0 106)"><path d="M0 0 C1.51 72.19, 1.34 145.41, 0 212 M0 0 C1.34 62.71, 0.72 125.87, 0 212" stroke="#999" stroke-width="1" fill="none"/></g></g><mask/><g mask="url(#mask-xuCRB4pKXmNIzj2vd0_Fp)" stroke-linecap="round"><g transform="translate(106.5 133) rotate(0 231.5 0)"><path d="M0.8 -0.75 C78.05 -0.95, 386.66 -1.1, 463.69 -0.81 M-0.23 1.47 C76.9 1.37, 386.03 0.68, 463.1 0.31" stroke="#1e1e1e" stroke-width="2" fill="none"/></g><g transform="translate(106.5 133) rotate(0 231.5 0)"><path d="M439.63 8.93 C445.81 7.18, 453.18 3.23, 463.1 0.31 M439.63 8.93 C448.41 4.7, 457.64 1.49, 463.1 0.31" stroke="#1e1e1e" stroke-width="2" fill="none"/></g><g transform="translate(106.5 133) rotate(0 231.5 0)"><path d="M439.58 -8.17 C445.83 -4.49, 453.21 -3, 463.1 0.31 M439.58 -8.17 C448.27 -5.82, 457.53 -2.46, 463.1 0.31" stroke="#1e1e1e" stroke-width="2" fill="none"/></g></g><mask id="mask-xuCRB4pKXmNIzj2vd0_Fp"><rect x="0" y="0" fill="#fff" width="669.5" height="233"/><rect x="251.640625" y="123" fill="#000" width="172.71875" height="20" opacity="1"/></mask><g transform="translate(251.640625 123) rotate(0 86.58554434130437 10.2481159430479)"><text x="86.359375" y="14.096" font-family="Excalifont, Xiaolai, Segoe UI Emoji" font-size="16px" fill="#1e1e1e" text-anchor="middle" style="white-space: pre;" direction="ltr" dominant-baseline="alphabetic">SELECT * FROM matches</text></g><g mask="url(#mask-J_E0nCW02epN4pBz4PiK8)" stroke-linecap="round"><g transform="translate(572.5 181) rotate(0 -231.5 0)"><path d="M-0.75 0.69 C-78.12 0.55, -386.94 0.2, -463.81 -0.04" stroke="#1e1e1e" stroke-width="2.5" fill="none" stroke-dasharray="1.5 8"/></g><g transform="translate(572.5 181) rotate(0 -231.5 0)"><path d="M-440.3 -8.54 C-446.88 -7.22, -455.86 -1.36, -463.81 -0.04" stroke="#1e1e1e" stroke-width="2.5" fill="none" stroke-dasharray="1.5 6"/></g><g transform="translate(572.5 181) rotate(0 -231.5 0)"><path d="M-440.33 8.56 C-447.02 4.22, -455.99 4.42, -463.81 -0.04" stroke="#1e1e1e" stroke-width="2.5" fill="none" stroke-dasharray="1.5 6"/></g></g><mask id="mask-J_E0nCW02epN4pBz4PiK8"><rect x="0" y="0" fill="#fff" width="1135.5" height="281"/><rect x="249.21484375" y="171" fill="#000" width="183.5703125" height="20" opacity="1"/></mask><g transform="translate(249.21484375 171) rotate(0 91.00556447058918 10.325216059386719)"><text x="91.78515625" y="14.096" font-family="Excalifont, Xiaolai, Segoe UI Emoji" font-size="16px" fill="#1e1e1e" text-anchor="middle" style="white-space: pre;" direction="ltr" dominant-baseline="alphabetic">Returns all (e.g., 756 rows)</text></g><g mask="url(#mask-Lxv3nQ71pTM_ZShMe9kzL)" stroke-linecap="round"><g transform="translate(106.5 229) rotate(0 231.5 0)"><path d="M0.69 -0.81 C77.71 -0.51, 386.03 0.94, 462.96 1.02 M-0.41 1.38 C76.38 1.43, 384.46 -0.48, 462 -0.57" stroke="#1e1e1e" stroke-width="2" fill="none"/></g><g transform="translate(106.5 229) rotate(0 231.5 0)"><path d="M438.54 8.07 C445.86 4.71, 457.51 0.39, 462 -0.57 M438.54 8.07 C444.87 5.07, 450.5 3.55, 462 -0.57" stroke="#1e1e1e" stroke-width="2" fill="none"/></g><g transform="translate(106.5 229) rotate(0 231.5 0)"><path d="M438.47 -9.03 C445.71 -6.12, 457.38 -4.16, 462 -0.57 M438.47 -9.03 C444.77 -7.36, 450.42 -4.21, 462 -0.57" stroke="#1e1e1e" stroke-width="2" fill="none"/></g></g><mask id="mask-Lxv3nQ71pTM_ZShMe9kzL"><rect x="0" y="0" fill="#fff" width="669.5" height="329"/><rect x="201.34765625" y="209" fill="#000" width="273.3046875" height="40" opacity="1"/></mask><g transform="translate(201.34765625 209) rotate(0 136.4279636801267 20.288172923013633)"><text x="136.65234375" y="14.096" font-family="Excalifont, Xiaolai, Segoe UI Emoji" font-size="16px" fill="#1e1e1e" text-anchor="middle" style="white-space: pre;" direction="ltr" dominant-baseline="alphabetic">SELECT * FROM matches WHERE city =</text><text x="136.65234375" y="34.096000000000004" font-family="Excalifont, Xiaolai, Segoe UI Emoji" font-size="16px" fill="#1e1e1e" text-anchor="middle" style="white-space: pre;" direction="ltr" dominant-baseline="alphabetic">'Hyderabad'</text></g><g mask="url(#mask-4gQ1qK03td93ohLjq6x3l)" stroke-linecap="round"><g transform="translate(572.5 277) rotate(0 -231.5 0)"><path d="M-0.81 -0.04 C-77.68 -0.27, -384.9 -0.67, -461.98 -0.72" stroke="#1e1e1e" stroke-width="2.5" fill="none" stroke-dasharray="1.5 8"/></g><g transform="translate(572.5 277) rotate(0 -231.5 0)"><path d="M-438.48 -9.25 C-444.07 -5.69, -450.8 -5.9, -461.98 -0.72" stroke="#1e1e1e" stroke-width="2.5" fill="none" stroke-dasharray="1.5 6"/></g><g transform="translate(572.5 277) rotate(0 -231.5 0)"><path d="M-438.5 7.85 C-444.18 7.35, -450.9 3.08, -461.98 -0.72" stroke="#1e1e1e" stroke-width="2.5" fill="none" stroke-dasharray="1.5 6"/></g></g><mask id="mask-4gQ1qK03td93ohLjq6x3l"><rect x="0" y="0" fill="#fff" width="1135.5" height="377"/><rect x="219.7109375" y="257" fill="#000" width="242.578125" height="40" opacity="1"/></mask><g transform="translate(219.7109375 257) rotate(0 121.39346515685321 19.620648960769174)"><text x="121.2890625" y="14.096" font-family="Excalifont, Xiaolai, Segoe UI Emoji" font-size="16px" fill="#1e1e1e" text-anchor="middle" style="white-space: pre;" direction="ltr" dominant-baseline="alphabetic">Returns filtered results (matches in</text><text x="121.2890625" y="34.096000000000004" font-family="Excalifont, Xiaolai, Segoe UI Emoji" font-size="16px" fill="#1e1e1e" text-anchor="middle" style="white-space: pre;" direction="ltr" dominant-baseline="alphabetic">Hyderabad)</text></g></svg>